# xmcd
#
# Track frame offsets:
#	150
#	16175
#	33280
#	49669
#	66654
#	82879
#	96750
#	111090
#	125880
#	142978
#	156728
#	173720
#	199903
#	215607
#	232970
#	249887
#	265285
#	282908
#	298137
#
# Disc length: 4169 seconds
#
# Revision: 0
# Processed by: cddbd v1.5.2PL0 Copyright (c) Steve Scherf et al.
# Submitted via: audiograbber 1.83.01
#
DISCID=1b104713
DTITLE=Various Artist - Hott Country 167
DYEAR=2010
DGENRE=Country
TTITLE0=Reba McEntire - Consider Me Gone
TTITLE1=Zac Brown Band - Highway 20 Ride
TTITLE2=Taylor Swift - Fearless
TTITLE3=Rascal Flatts - Unstoppable
TTITLE4=Jessica Harp - A Woman Needs
TTITLE5=Love And Theft - Dancing In Circles
TTITLE6=Wilsons - Stick Together
TTITLE7=One More Girl - Tumblin' Tears
TTITLE8=Trace Adkins - Ala-Freakin-Bama
TTITLE9=Danny Gokey - My Best Days Are Ahead
TTITLE10=Wilsons - Mine All Mine
TTITLE11=Brad Paisley - Welcome to The Future ( Original Acoustic Version )
TTITLE12=Uncle Kracker - Smile ( Country Version )
TTITLE13=Blue Rodeo - Arizona Dust
TTITLE14=Higgins - Free Like Love
TTITLE15=Mumford and Sons - Little Lion Man
TTITLE16=Taylor Swift - Jump Then Fall ( Radio Edit )
TTITLE17=Alan Jackson - It's Just That Way
TTITLE18=Reba McEntire - Take it Back ( 1992 )
EXTD=January 2010
EXTT0=
EXTT1=
EXTT2=
EXTT3=
EXTT4=
EXTT5=
EXTT6=
EXTT7=
EXTT8=
EXTT9=
EXTT10=
EXTT11=
EXTT12=
EXTT13=
EXTT14=
EXTT15=
EXTT16=
EXTT17=
EXTT18=
PLAYORDER=
